<svg width="25" height="24" viewBox="0 0 25 24" fill="none" xmlns="http://www.w3.org/2000/svg">
<path d="M13.5 2C13.5 1.44772 13.0523 1 12.5 1C11.9477 1 11.5 1.44772 11.5 2V4C11.5 4.55228 11.9477 5 12.5 5C13.0523 5 13.5 4.55228 13.5 4V2Z" fill="#141718"/>
<path d="M13.5 20C13.5 19.4477 13.0523 19 12.5 19C11.9477 19 11.5 19.4477 11.5 20V22C11.5 22.5523 11.9477 23 12.5 23C13.0523 23 13.5 22.5523 13.5 22V20Z" fill="#141718"/>
<path d="M1.5 12C1.5 11.4477 1.94772 11 2.5 11H4.5C5.05228 11 5.5 11.4477 5.5 12C5.5 12.5523 5.05228 13 4.5 13H2.5C1.94772 13 1.5 12.5523 1.5 12Z" fill="#141718"/>
<path d="M6.10701 4.1928C5.71649 3.80227 5.08332 3.80227 4.6928 4.1928C4.30227 4.58332 4.30227 5.21649 4.6928 5.60701L6.10701 7.02122C6.49753 7.41175 7.1307 7.41175 7.52122 7.02122C7.91175 6.6307 7.91175 5.99753 7.52122 5.60701L6.10701 4.1928Z" fill="#141718"/>
<path d="M20.3072 4.1928C20.6978 4.58332 20.6978 5.21649 20.3072 5.60701L18.893 7.02122C18.5025 7.41175 17.8693 7.41175 17.4788 7.02122C17.0883 6.6307 17.0883 5.99753 17.4788 5.60701L18.893 4.1928C19.2835 3.80227 19.9167 3.80227 20.3072 4.1928Z" fill="#141718"/>
<path d="M7.52122 18.397C7.91175 18.0065 7.91175 17.3734 7.52122 16.9828C7.1307 16.5923 6.49753 16.5923 6.10701 16.9828L4.6928 18.397C4.30227 18.7876 4.30227 19.4207 4.6928 19.8113C5.08332 20.2018 5.71649 20.2018 6.10701 19.8113L7.52122 18.397Z" fill="#141718"/>
<path d="M17.4788 16.9828C17.8693 16.5923 18.5025 16.5923 18.893 16.9828L20.3072 18.397C20.6978 18.7876 20.6978 19.4207 20.3072 19.8113C19.9167 20.2018 19.2835 20.2018 18.893 19.8113L17.4788 18.397C17.0883 18.0065 17.0883 17.3734 17.4788 16.9828Z" fill="#141718"/>
<path d="M20.5 11C19.9477 11 19.5 11.4477 19.5 12C19.5 12.5523 19.9477 13 20.5 13H22.5C23.0523 13 23.5 12.5523 23.5 12C23.5 11.4477 23.0523 11 22.5 11H20.5Z" fill="#141718"/>
<path d="M12.5 6C9.18629 6 6.5 8.68629 6.5 12C6.5 15.3137 9.18629 18 12.5 18C15.8137 18 18.5 15.3137 18.5 12C18.5 8.68629 15.8137 6 12.5 6Z" fill="#141718"/>
</svg>
